<?xml version="1.0" encoding="UTF-8" standalone="no"?>
<!-- Generator: Adobe Illustrator 19.0.0, SVG Export Plug-In . SVG Version: 6.00 Build 0)  -->

<svg
   xmlns:dc="http://purl.org/dc/elements/1.1/"
   xmlns:cc="http://creativecommons.org/ns#"
   xmlns:rdf="http://www.w3.org/1999/02/22-rdf-syntax-ns#"
   xmlns:svg="http://www.w3.org/2000/svg"
   xmlns="http://www.w3.org/2000/svg"
   xmlns:sodipodi="http://sodipodi.sourceforge.net/DTD/sodipodi-0.dtd"
   xmlns:inkscape="http://www.inkscape.org/namespaces/inkscape"
   version="1.1"
   id="Layer_1"
   x="0px"
   y="0px"
   viewBox="0 0 96 96"
   style="enable-background:new 0 0 96 96;"
   xml:space="preserve"
   sodipodi:docname="Youtube-02.svg"
   inkscape:version="0.92.4 (5da689c313, 2019-01-14)"><metadata
   id="metadata32"><rdf:RDF><cc:Work
       rdf:about=""><dc:format>image/svg+xml</dc:format><dc:type
         rdf:resource="http://purl.org/dc/dcmitype/StillImage" /></cc:Work></rdf:RDF></metadata><defs
   id="defs30" /><sodipodi:namedview
   pagecolor="#ffffff"
   bordercolor="#666666"
   borderopacity="1"
   objecttolerance="10"
   gridtolerance="10"
   guidetolerance="10"
   inkscape:pageopacity="0"
   inkscape:pageshadow="2"
   inkscape:window-width="3840"
   inkscape:window-height="2066"
   id="namedview28"
   showgrid="false"
   inkscape:zoom="19.197917"
   inkscape:cx="38.597938"
   inkscape:cy="48"
   inkscape:window-x="2293"
   inkscape:window-y="-11"
   inkscape:window-maximized="1"
   inkscape:current-layer="XMLID_1_" />
<style
   type="text/css"
   id="style22">
	.st0{fill:#CA4638;}
	.st1{fill:#FFFFFF;}
</style>
<g
   id="XMLID_1_">
	<circle
   id="XMLID_3_"
   class="st0"
   cx="48"
   cy="48"
   r="27.5"
   style="fill:#ff0000;fill-opacity:1" />
	<path
   id="XMLID_6_"
   class="st1"
   d="M65.6,40.7c0,0-0.3-2.4-1.4-3.5c-1.3-1.4-2.8-1.4-3.5-1.5c-4.9-0.4-12.3-0.4-12.3-0.4h0   c0,0-7.4,0-12.3,0.4c-0.7,0.1-2.2,0.1-3.5,1.5c-1.1,1.1-1.4,3.5-1.4,3.5s-0.4,2.8-0.4,5.7v2.7c0,2.8,0.4,5.7,0.4,5.7   s0.3,2.4,1.4,3.5c1.3,1.4,3.1,1.4,3.9,1.5c2.8,0.3,12,0.4,12,0.4s7.4,0,12.3-0.4c0.7-0.1,2.2-0.1,3.5-1.5c1.1-1.1,1.4-3.5,1.4-3.5   s0.4-2.8,0.4-5.7v-2.7C66,43.6,65.6,40.7,65.6,40.7z M44.8,52.3l0-9.9l9.5,5L44.8,52.3z" />
</g>
</svg>